<svg width="28" height="28" viewBox="0 0 28 28" fill="none" xmlns="http://www.w3.org/2000/svg">
<path fill-rule="evenodd" clip-rule="evenodd" d="M14.0031 3.10645C7.98967 3.10645 3.10938 7.98674 3.10938 14.0002C3.10938 20.0137 7.98967 24.894 14.0031 24.894H18.2031C19.0005 24.894 19.6469 24.2476 19.6469 23.4502C19.6469 22.6529 19.0005 22.0065 18.2031 22.0065H14.0031C9.6636 22.0065 5.99688 18.3398 5.99688 14.0002C5.99688 9.66067 9.6636 5.99395 14.0031 5.99395C18.3427 5.99395 22.0094 9.66067 22.0094 14.0002V15.5017C22.0094 15.8013 21.8722 16.1202 21.6399 16.3673C21.4077 16.6142 21.1123 16.7565 20.8282 16.7565C20.544 16.7565 20.2486 16.6142 20.0164 16.3673C19.7841 16.1202 19.6469 15.8013 19.6469 15.5017V14.0002C19.6469 10.8847 17.1186 8.35645 14.0031 8.35645C10.8877 8.35645 8.35938 10.8847 8.35938 14.0002C8.35938 17.1157 10.8877 19.644 14.0031 19.644C15.4041 19.644 16.6968 19.1322 17.6828 18.2802C18.4577 19.1209 19.6126 19.644 20.8282 19.644C23.1242 19.644 24.8969 17.7774 24.8969 15.5017V14.0002C24.8969 7.98674 20.0166 3.10645 14.0031 3.10645ZM11.2469 14.0002C11.2469 12.4747 12.4776 11.244 14.0031 11.244C15.5287 11.244 16.7594 12.4747 16.7594 14.0002C16.7594 15.5258 15.5287 16.7565 14.0031 16.7565C12.4776 16.7565 11.2469 15.5258 11.2469 14.0002Z" fill="#40354B"/>
</svg>
