<svg width="150" height="150" viewBox="0 0 150 150" fill="none" xmlns="http://www.w3.org/2000/svg">
<g filter="url(#filter0_d_8758_23288)">
<circle cx="75" cy="75" r="28" fill="url(#paint0_linear_8758_23288)"/>
<path d="M74.922 58.2L74.6992 58.9566V80.9094L74.922 81.1316L85.112 75.1082L74.922 58.2Z" fill="#10151A"/>
<path d="M74.9208 58.2L64.7305 75.1082L74.9208 81.1316V70.4764V58.2Z" fill="#10151A"/>
<path d="M74.9224 83.0609L74.7969 83.214V91.0339L74.9224 91.4004L85.1187 77.0406L74.9224 83.0609Z" fill="#10151A"/>
<path d="M74.9208 91.4004V83.0609L64.7305 77.0406L74.9208 91.4004Z" fill="#10151A"/>
<path d="M74.9219 81.1316L85.1119 75.1082L74.9219 70.4763V81.1316Z" fill="#10151A"/>
<path d="M64.7305 75.1082L74.9208 81.1316V70.4763L64.7305 75.1082Z" fill="#10151A"/>
</g>
<defs>
<filter id="filter0_d_8758_23288" x="0" y="0" width="150" height="150" filterUnits="userSpaceOnUse" color-interpolation-filters="sRGB">
<feFlood flood-opacity="0" result="BackgroundImageFix"/>
<feColorMatrix in="SourceAlpha" type="matrix" values="0 0 0 0 0 0 0 0 0 0 0 0 0 0 0 0 0 0 127 0" result="hardAlpha"/>
<feOffset/>
<feGaussianBlur stdDeviation="23.5"/>
<feComposite in2="hardAlpha" operator="out"/>
<feColorMatrix type="matrix" values="0 0 0 0 0.384314 0 0 0 0 0.494118 0 0 0 0 0.917647 0 0 0 0.3 0"/>
<feBlend mode="normal" in2="BackgroundImageFix" result="effect1_dropShadow_8758_23288"/>
<feBlend mode="normal" in="SourceGraphic" in2="effect1_dropShadow_8758_23288" result="shape"/>
</filter>
<linearGradient id="paint0_linear_8758_23288" x1="75" y1="47" x2="75" y2="103" gradientUnits="userSpaceOnUse">
<stop stop-color="#7993F9"/>
<stop offset="1" stop-color="#627EEA"/>
</linearGradient>
</defs>
</svg>
