<svg width="150" height="150" viewBox="0 0 150 150" fill="none" xmlns="http://www.w3.org/2000/svg">
<g filter="url(#filter0_d_8758_23299)">
<rect x="47" y="46.9999" width="56.0003" height="56.0003" rx="28.0001" fill="url(#paint0_linear_8758_23299)"/>
<path d="M62.8489 72.8267C63.2093 73.5661 64.1012 75.0274 64.1012 75.0274L74.412 58.6666L64.3489 65.4115C63.7493 65.7955 63.2573 66.3152 62.9165 66.9248C62.4581 67.8445 62.2146 68.8492 62.203 69.8686C62.1913 70.888 62.4117 71.8976 62.8489 72.8267Z" fill="#10151A"/>
<path d="M58.7633 78.214C58.8769 79.779 59.3376 81.3026 60.1144 82.6829C60.8913 84.0631 61.9664 85.268 63.2678 86.2171L74.3984 93.6668C74.3984 93.6668 67.4345 84.0336 61.5606 74.4481C60.9659 73.4353 60.5661 72.3281 60.3804 71.1793C60.2982 70.6592 60.2982 70.13 60.3804 69.6099C60.2273 69.8822 59.9299 70.44 59.9299 70.44C59.3344 71.6059 58.9287 72.8527 58.7272 74.1367C58.6113 75.4941 58.6233 76.8587 58.7633 78.214Z" fill="#10151A"/>
<path d="M87.1598 79.5067C86.7994 78.7675 85.9076 77.306 85.9076 77.306L75.5967 93.6668L85.6599 86.9263C86.2595 86.5422 86.7513 86.0225 87.0922 85.4129C87.5513 84.4926 87.7951 83.4872 87.8069 82.467C87.8185 81.4468 87.5977 80.4365 87.1598 79.5067Z" fill="#10151A"/>
<path d="M91.2454 74.1194C91.1318 72.5544 90.6711 71.0308 89.8943 69.6506C89.1175 68.2703 88.0423 67.0654 86.7409 66.1163L75.6102 58.6666C75.6102 58.6666 82.5697 68.2998 88.4481 77.8853C89.0413 78.8983 89.4394 80.0056 89.6238 81.1541C89.706 81.6742 89.706 82.2034 89.6238 82.7236C89.7769 82.4511 90.0742 81.8934 90.0742 81.8934C90.6698 80.7275 91.0755 79.4807 91.277 78.1967C91.3945 76.8395 91.3839 75.4748 91.2454 74.1194Z" fill="#10151A"/>
<path d="M62.9165 66.9248C63.2573 66.3152 63.7493 65.7955 64.3489 65.4115L74.412 58.6666L64.1011 75.0317C64.1011 75.0317 63.2002 73.5703 62.8489 72.8309C62.411 71.9013 62.1902 70.8909 62.2019 69.8707C62.2136 68.8505 62.4575 67.8451 62.9165 66.9248ZM58.7633 78.214C58.8769 79.779 59.3376 81.3026 60.1144 82.6829C60.8913 84.0631 61.9664 85.268 63.2678 86.2171L74.3984 93.6668C74.3984 93.6668 67.4345 84.0336 61.5606 74.4481C60.9659 73.4353 60.5661 72.3281 60.3804 71.1793C60.2982 70.6592 60.2982 70.13 60.3804 69.6099C60.2273 69.8822 59.9299 70.44 59.9299 70.44C59.3344 71.6059 58.9287 72.8527 58.7272 74.1367C58.6113 75.4941 58.6233 76.8587 58.7633 78.214ZM87.1418 79.5111C86.7814 78.7717 85.8896 77.3103 85.8896 77.3103L75.5967 93.6668L85.6599 86.9263C86.2595 86.5422 86.7513 86.0225 87.0922 85.4129C87.5513 84.4926 87.7951 83.4872 87.8069 82.467C87.8185 81.4468 87.5977 80.4365 87.1598 79.5067L87.1418 79.5111ZM91.2273 74.1238C91.1138 72.5588 90.6531 71.0351 89.8762 69.6549C89.0994 68.2747 88.0243 67.0697 86.7228 66.1206L75.6102 58.6666C75.6102 58.6666 82.5697 68.2998 88.4481 77.8853C89.0413 78.8983 89.4394 80.0056 89.6238 81.1541C89.706 81.6742 89.706 82.2034 89.6238 82.7236C89.7769 82.4511 90.0742 81.8934 90.0742 81.8934C90.6698 80.7275 91.0755 79.4807 91.277 78.1967C91.3945 76.8395 91.3839 75.4748 91.2454 74.1194L91.2273 74.1238Z" fill="#10151A"/>
</g>
<defs>
<filter id="filter0_d_8758_23299" x="0" y="-0.000137329" width="150" height="150" filterUnits="userSpaceOnUse" color-interpolation-filters="sRGB">
<feFlood flood-opacity="0" result="BackgroundImageFix"/>
<feColorMatrix in="SourceAlpha" type="matrix" values="0 0 0 0 0 0 0 0 0 0 0 0 0 0 0 0 0 0 127 0" result="hardAlpha"/>
<feOffset/>
<feGaussianBlur stdDeviation="23.5"/>
<feComposite in2="hardAlpha" operator="out"/>
<feColorMatrix type="matrix" values="0 0 0 0 0.458824 0 0 0 0 0.721569 0 0 0 0 0.984314 0 0 0 0.3 0"/>
<feBlend mode="normal" in2="BackgroundImageFix" result="effect1_dropShadow_8758_23299"/>
<feBlend mode="normal" in="SourceGraphic" in2="effect1_dropShadow_8758_23299" result="shape"/>
</filter>
<linearGradient id="paint0_linear_8758_23299" x1="75.0001" y1="46.9999" x2="75.0001" y2="103" gradientUnits="userSpaceOnUse">
<stop stop-color="#A09FFE"/>
<stop offset="1" stop-color="#4ACEF7"/>
</linearGradient>
</defs>
</svg>
