<svg width="77" height="57" viewBox="0 0 77 57" fill="none" xmlns="http://www.w3.org/2000/svg">
<path fill-rule="evenodd" clip-rule="evenodd" d="M60.605 24.9145C60.5508 24.3948 60.1105 24 59.5854 24C59.0602 24 58.62 24.3948 58.5658 24.9145L57.7555 32.6798C57.425 35.8472 54.9085 38.3507 51.7247 38.6796L43.9192 39.4856C43.3969 39.5396 43 39.9775 43 40.5C43 41.0225 43.3969 41.4604 43.9192 41.5143L51.7247 42.3204C54.9085 42.6493 57.425 45.1528 57.7555 48.3202L58.5658 56.0855C58.62 56.6052 59.0602 57 59.5854 57C60.1105 57 60.5508 56.6052 60.605 56.0855L61.4153 48.3202C61.7458 45.1528 64.2623 42.6493 67.4461 42.3204L75.2515 41.5143C75.7739 41.4604 76.1708 41.0225 76.1708 40.5C76.1708 39.9775 75.7739 39.5396 75.2515 39.4856L67.4461 38.6796C64.2623 38.3507 61.7458 35.8472 61.4153 32.6798L60.605 24.9145Z" fill="#F87388"/>
<path fill-rule="evenodd" clip-rule="evenodd" d="M13.2684 0.692806C13.2276 0.299123 12.8958 0 12.5 0C12.1042 0 11.7724 0.299123 11.7316 0.692806L11.1209 6.57561C10.8718 8.97516 8.97516 10.8718 6.57561 11.1209L0.692806 11.7316C0.299123 11.7724 0 12.1042 0 12.5C0 12.8958 0.299123 13.2276 0.692806 13.2684L6.57561 13.8791C8.97516 14.1282 10.8718 16.0248 11.1209 18.4244L11.7316 24.3072C11.7724 24.7009 12.1042 25 12.5 25C12.8958 25 13.2276 24.7009 13.2684 24.3072L13.8791 18.4244C14.1282 16.0248 16.0248 14.1282 18.4244 13.8791L24.3072 13.2684C24.7009 13.2276 25 12.8958 25 12.5C25 12.1042 24.7009 11.7724 24.3072 11.7316L18.4244 11.1209C16.0248 10.8718 14.1282 8.97516 13.8791 6.57561L13.2684 0.692806Z" fill="#C8D316"/>
</svg>
